<svg xmlns="http://www.w3.org/2000/svg" xmlns:xlink="http://www.w3.org/1999/xlink" width="500" zoomAndPan="magnify" viewBox="0 0 375 374.999991" height="500" preserveAspectRatio="xMidYMid meet" version="1.0"><defs><g/></defs><rect x="-37.5" width="450" fill="#00000" y="-37.499999" height="449.999989" fill-opacity="1"/><rect x="-37.5" width="450" fill="none" y="-37.499999" height="449.999989" fill-opacity="1"/><g fill="#ffffff" fill-opacity="1"><g transform="translate(162.458974, 267.133341)"><g><path d="M 62.875 -69.234375 C 60.96875 -67.222656 58.800781 -65.742188 56.375 -64.796875 C 66.75 -63.304688 74.632812 -59.625 80.03125 -53.75 C 85.425781 -47.875 88.125 -40.703125 88.125 -32.234375 C 88.125 -21.960938 83.992188 -13.648438 75.734375 -7.296875 C 67.484375 -0.953125 56.632812 2.21875 43.1875 2.21875 C 29.738281 2.21875 19.203125 -1.085938 11.578125 -7.703125 C 3.960938 -14.316406 0.15625 -23.660156 0.15625 -35.734375 C 0.15625 -36.367188 0.15625 -37.003906 0.15625 -37.640625 L 1.90625 -37.953125 C 4.019531 -22.179688 10.582031 -11.960938 21.59375 -7.296875 L 21.59375 -99.71875 C 21.382812 -102.582031 20.300781 -104.9375 18.34375 -106.78125 C 16.382812 -108.632812 14.023438 -109.5625 11.265625 -109.5625 L 9.359375 -109.5625 L 9.359375 -111.15625 L 36.046875 -111.15625 C 45.992188 -111.15625 53.957031 -108.878906 59.9375 -104.328125 C 65.925781 -99.773438 68.921875 -93.816406 68.921875 -86.453125 C 68.921875 -79.097656 66.90625 -73.359375 62.875 -69.234375 Z M 31.921875 -106.078125 L 31.921875 -4.453125 C 35.410156 -3.921875 39.429688 -3.65625 43.984375 -3.65625 C 54.148438 -3.65625 62.0625 -6.378906 67.71875 -11.828125 C 73.382812 -17.285156 76.21875 -24.351562 76.21875 -33.03125 C 76.21875 -37.6875 75.34375 -41.8125 73.59375 -45.40625 C 71.851562 -49.007812 69.660156 -51.816406 67.015625 -53.828125 C 60.023438 -59.234375 50.175781 -61.9375 37.46875 -61.9375 C 37.363281 -61.9375 37.3125 -61.9375 37.3125 -61.9375 L 37.15625 -63.359375 C 37.257812 -63.359375 37.3125 -63.359375 37.3125 -63.359375 C 42.707031 -63.359375 47.335938 -65.128906 51.203125 -68.671875 C 55.066406 -72.222656 57 -77.703125 57 -85.109375 C 57 -99.085938 49.328125 -106.078125 33.984375 -106.078125 Z M 31.921875 -106.078125 "/></g></g></g><g fill="#ffffff" fill-opacity="1"><g transform="translate(100.542963, 235.883305)"><g><path d="M 42.234375 -1.59375 L 44.296875 -1.59375 L 44.296875 0 L 9.53125 0 L 9.53125 -1.59375 L 11.59375 -1.59375 C 14.34375 -1.59375 16.695312 -2.570312 18.65625 -4.53125 C 20.613281 -6.488281 21.644531 -8.84375 21.75 -11.59375 L 21.75 -99.71875 C 21.644531 -102.476562 20.613281 -104.804688 18.65625 -106.703125 C 16.695312 -108.609375 14.34375 -109.5625 11.59375 -109.5625 L 9.53125 -109.5625 L 9.53125 -111.15625 L 44.296875 -111.15625 L 44.296875 -109.5625 L 42.234375 -109.5625 C 39.484375 -109.5625 37.128906 -108.609375 35.171875 -106.703125 C 33.210938 -104.804688 32.179688 -102.476562 32.078125 -99.71875 L 32.078125 -11.59375 C 32.078125 -8.84375 33.082031 -6.488281 35.09375 -4.53125 C 37.101562 -2.570312 39.484375 -1.59375 42.234375 -1.59375 Z M 152.28125 23.8125 L 152.28125 25.40625 C 148.257812 26.363281 144.238281 26.84375 140.21875 26.84375 C 122.851562 26.84375 106.019531 18.160156 89.71875 0.796875 L 37.15625 -55.265625 L 74.640625 -102.265625 C 75.484375 -103.328125 75.90625 -104.28125 75.90625 -105.125 C 75.90625 -105.96875 75.742188 -106.707031 75.421875 -107.34375 C 74.578125 -108.9375 73.046875 -109.734375 70.828125 -109.734375 L 69.234375 -109.734375 L 69.234375 -111.15625 L 102.734375 -111.15625 L 102.734375 -109.734375 L 102.109375 -109.734375 C 95.117188 -109.734375 89.398438 -107.242188 84.953125 -102.265625 L 47.953125 -59.546875 L 101.953125 -1.90625 C 108.929688 5.613281 116.785156 11.78125 125.515625 16.59375 C 134.253906 21.40625 143.175781 23.8125 152.28125 23.8125 Z M 152.28125 23.8125 "/></g></g></g><path fill="#000000" d="M 96.550781 179.496094 L 263.765625 179.496094 C 264.828125 179.496094 265.84375 179.917969 266.59375 180.667969 C 267.34375 181.417969 267.765625 182.4375 267.765625 183.5 L 267.765625 191.5 C 267.765625 192.5625 267.34375 193.582031 266.59375 194.332031 C 265.84375 195.082031 264.828125 195.503906 263.765625 195.503906 L 96.550781 195.503906 C 95.492188 195.503906 94.472656 195.082031 93.722656 194.332031 C 92.972656 193.582031 92.550781 192.5625 92.550781 191.5 L 92.550781 183.5 C 92.550781 182.4375 92.972656 181.417969 93.722656 180.667969 C 94.472656 179.917969 95.492188 179.496094 96.550781 179.496094 Z M 96.550781 179.496094 " fill-opacity="1" fill-rule="nonzero"/><g fill="#ffffff" fill-opacity="1"><g transform="translate(100.368851, 190.499987)"><g><path d="M 0.734375 0 L 0.734375 -7.109375 L 2.03125 -7.109375 L 2.03125 -3.9375 L 4.984375 -7.109375 L 6.578125 -7.109375 L 3.21875 -3.5625 C 3.5 -3.414062 3.742188 -3.179688 3.953125 -2.859375 L 4.75 -1.625 C 4.882812 -1.40625 5.019531 -1.253906 5.15625 -1.171875 C 5.289062 -1.097656 5.457031 -1.0625 5.65625 -1.0625 C 5.894531 -1.0625 6.109375 -1.117188 6.296875 -1.234375 L 6.59375 -0.234375 C 6.46875 -0.128906 6.304688 -0.0507812 6.109375 0 C 5.910156 0.0625 5.703125 0.09375 5.484375 0.09375 C 4.734375 0.09375 4.144531 -0.238281 3.71875 -0.90625 L 2.6875 -2.484375 C 2.59375 -2.617188 2.5 -2.722656 2.40625 -2.796875 C 2.3125 -2.878906 2.1875 -2.9375 2.03125 -2.96875 L 2.03125 0 Z M 0.734375 0 "/></g></g></g><g fill="#ffffff" fill-opacity="1"><g transform="translate(114.296338, 190.499987)"><g><path d="M -0.09375 0 L 2.9375 -7.109375 L 4.03125 -7.109375 L 6.953125 0 L 5.625 0 L 4.984375 -1.625 L 1.890625 -1.625 L 1.21875 0 Z M 2.328125 -2.71875 L 4.5625 -2.71875 L 3.46875 -5.515625 Z M 2.328125 -2.71875 "/></g></g></g><g fill="#ffffff" fill-opacity="1"><g transform="translate(128.804281, 190.499987)"><g><path d="M 0.734375 0 L 0.734375 -7.109375 L 3.09375 -7.109375 C 4 -7.109375 4.691406 -6.941406 5.171875 -6.609375 C 5.660156 -6.285156 5.90625 -5.804688 5.90625 -5.171875 C 5.90625 -4.828125 5.820312 -4.519531 5.65625 -4.25 C 5.488281 -3.976562 5.25 -3.765625 4.9375 -3.609375 C 5.257812 -3.484375 5.519531 -3.28125 5.71875 -3 C 5.914062 -2.71875 6.015625 -2.394531 6.015625 -2.03125 C 6.015625 -1.414062 5.78125 -0.921875 5.3125 -0.546875 C 4.851562 -0.179688 4.222656 0 3.421875 0 Z M 3.109375 -6.046875 L 2 -6.046875 L 2 -4.109375 L 3.09375 -4.109375 C 3.601562 -4.109375 3.976562 -4.1875 4.21875 -4.34375 C 4.46875 -4.507812 4.59375 -4.765625 4.59375 -5.109375 C 4.59375 -5.429688 4.472656 -5.664062 4.234375 -5.8125 C 4.003906 -5.96875 3.628906 -6.046875 3.109375 -6.046875 Z M 2 -1.0625 L 3.390625 -1.0625 C 3.796875 -1.0625 4.117188 -1.140625 4.359375 -1.296875 C 4.597656 -1.460938 4.71875 -1.71875 4.71875 -2.0625 C 4.71875 -2.707031 4.265625 -3.03125 3.359375 -3.03125 L 2 -3.03125 Z M 2 -1.0625 "/></g></g></g><g fill="#ffffff" fill-opacity="1"><g transform="translate(142.761797, 190.499987)"><g><path d="M 0.734375 0 L 0.734375 -7.109375 L 2.03125 -7.109375 L 2.03125 0 Z M 0.734375 0 "/></g></g></g><g fill="#ffffff" fill-opacity="1"><g transform="translate(153.146503, 190.499987)"><g><path d="M 6.34375 -1.234375 L 6.65625 -0.234375 C 6.519531 -0.128906 6.351562 -0.0507812 6.15625 0 C 5.96875 0.0625 5.765625 0.09375 5.546875 0.09375 C 4.796875 0.09375 4.207031 -0.238281 3.78125 -0.90625 L 2.75 -2.484375 C 2.644531 -2.648438 2.535156 -2.765625 2.421875 -2.828125 C 2.304688 -2.898438 2.179688 -2.9375 2.046875 -2.9375 L 2 -2.9375 L 2 0 L 0.734375 0 L 0.734375 -7.109375 L 2.9375 -7.109375 C 3.84375 -7.109375 4.523438 -6.921875 4.984375 -6.546875 C 5.453125 -6.171875 5.6875 -5.660156 5.6875 -5.015625 C 5.6875 -4.617188 5.597656 -4.273438 5.421875 -3.984375 C 5.253906 -3.703125 5.019531 -3.476562 4.71875 -3.3125 C 4.414062 -3.144531 4.078125 -3.039062 3.703125 -3 C 3.898438 -2.882812 4.082031 -2.703125 4.25 -2.453125 L 4.8125 -1.625 C 4.957031 -1.40625 5.09375 -1.253906 5.21875 -1.171875 C 5.351562 -1.097656 5.519531 -1.0625 5.71875 -1.0625 C 5.945312 -1.0625 6.15625 -1.117188 6.34375 -1.234375 Z M 2.859375 -6.046875 L 2 -6.046875 L 2 -3.953125 L 2.796875 -3.953125 C 3.335938 -3.953125 3.738281 -4.035156 4 -4.203125 C 4.257812 -4.367188 4.390625 -4.640625 4.390625 -5.015625 C 4.390625 -5.703125 3.878906 -6.046875 2.859375 -6.046875 Z M 2.859375 -6.046875 "/></g></g></g><g fill="#ffffff" fill-opacity="1"><g transform="translate(167.043973, 190.499987)"><g><path d="M 0.734375 0 L 0.734375 -7.109375 L 2.03125 -7.109375 L 2.03125 0 Z M 0.734375 0 "/></g></g></g><g fill="#ffffff" fill-opacity="1"><g transform="translate(177.428678, 190.499987)"><g/></g></g><g fill="#ffffff" fill-opacity="1"><g transform="translate(187.483131, 190.499987)"><g><path d="M 5.40625 -7.109375 L 6.65625 -7.109375 L 6.65625 0 L 5.515625 0 L 1.984375 -4.953125 L 1.984375 0 L 0.734375 0 L 0.734375 -7.109375 L 1.875 -7.109375 L 5.40625 -2.15625 Z M 5.40625 -7.109375 "/></g></g></g><g fill="#ffffff" fill-opacity="1"><g transform="translate(202.491467, 190.499987)"><g><path d="M 1.1875 0.09375 C 0.925781 0.09375 0.71875 0.015625 0.5625 -0.140625 C 0.414062 -0.304688 0.34375 -0.503906 0.34375 -0.734375 C 0.34375 -0.972656 0.414062 -1.171875 0.5625 -1.328125 C 0.71875 -1.492188 0.925781 -1.578125 1.1875 -1.578125 C 1.445312 -1.578125 1.65625 -1.492188 1.8125 -1.328125 C 1.96875 -1.171875 2.046875 -0.972656 2.046875 -0.734375 C 2.046875 -0.503906 1.96875 -0.304688 1.8125 -0.140625 C 1.65625 0.015625 1.445312 0.09375 1.1875 0.09375 Z M 1.1875 0.09375 "/></g></g></g><g fill="#ffffff" fill-opacity="1"><g transform="translate(212.485878, 190.499987)"><g><path d="M 0.734375 0 L 0.734375 -7.109375 L 3.09375 -7.109375 C 4 -7.109375 4.691406 -6.941406 5.171875 -6.609375 C 5.660156 -6.285156 5.90625 -5.804688 5.90625 -5.171875 C 5.90625 -4.828125 5.820312 -4.519531 5.65625 -4.25 C 5.488281 -3.976562 5.25 -3.765625 4.9375 -3.609375 C 5.257812 -3.484375 5.519531 -3.28125 5.71875 -3 C 5.914062 -2.71875 6.015625 -2.394531 6.015625 -2.03125 C 6.015625 -1.414062 5.78125 -0.921875 5.3125 -0.546875 C 4.851562 -0.179688 4.222656 0 3.421875 0 Z M 3.109375 -6.046875 L 2 -6.046875 L 2 -4.109375 L 3.09375 -4.109375 C 3.601562 -4.109375 3.976562 -4.1875 4.21875 -4.34375 C 4.46875 -4.507812 4.59375 -4.765625 4.59375 -5.109375 C 4.59375 -5.429688 4.472656 -5.664062 4.234375 -5.8125 C 4.003906 -5.96875 3.628906 -6.046875 3.109375 -6.046875 Z M 2 -1.0625 L 3.390625 -1.0625 C 3.796875 -1.0625 4.117188 -1.140625 4.359375 -1.296875 C 4.597656 -1.460938 4.71875 -1.71875 4.71875 -2.0625 C 4.71875 -2.707031 4.265625 -3.03125 3.359375 -3.03125 L 2 -3.03125 Z M 2 -1.0625 "/></g></g></g><g fill="#ffffff" fill-opacity="1"><g transform="translate(226.443389, 190.499987)"><g><path d="M 5.453125 -7.109375 L 6.75 -7.109375 L 6.765625 -3.328125 C 6.765625 -2.617188 6.644531 -2.007812 6.40625 -1.5 C 6.175781 -0.988281 5.832031 -0.59375 5.375 -0.3125 C 4.925781 -0.0390625 4.382812 0.09375 3.75 0.09375 C 2.738281 0.09375 1.976562 -0.160156 1.46875 -0.671875 C 0.957031 -1.179688 0.703125 -1.960938 0.703125 -3.015625 L 0.703125 -7.109375 L 2 -7.109375 L 2 -3.109375 C 2 -2.398438 2.144531 -1.882812 2.4375 -1.5625 C 2.726562 -1.238281 3.160156 -1.078125 3.734375 -1.078125 C 4.316406 -1.078125 4.753906 -1.265625 5.046875 -1.640625 C 5.335938 -2.015625 5.476562 -2.597656 5.46875 -3.390625 Z M 5.453125 -7.109375 "/></g></g></g><g fill="#ffffff" fill-opacity="1"><g transform="translate(241.52178, 190.499987)"><g><path d="M 0.734375 0 L 0.734375 -7.109375 L 2.03125 -7.109375 L 2.03125 -1.140625 L 5.203125 -1.140625 L 5.109375 0 Z M 0.734375 0 "/></g></g></g><g fill="#ffffff" fill-opacity="1"><g transform="translate(254.28835, 190.499987)"><g><path d="M 5.3125 -5.984375 L 2 -5.984375 L 2 -4.15625 L 5.140625 -4.15625 L 5.140625 -3.03125 L 2 -3.03125 L 2 -1.125 L 5.421875 -1.125 L 5.34375 0 L 0.734375 0 L 0.734375 -7.109375 L 5.3125 -7.109375 Z M 5.3125 -5.984375 "/></g></g></g></svg>